<mxfile host="app.diagrams.net" modified="2022-09-21T08:51:12.929Z" agent="5.0 (Macintosh)" etag="fh2yenxjD8TPnyg2yw9_" version="20.3.3" type="github" pages="2">
  <diagram id="C5RBs43oDa-KdzZeNtuy" name="Application Flow">
    <mxGraphModel dx="1577" dy="895" grid="1" gridSize="10" guides="1" tooltips="1" connect="1" arrows="1" fold="1" page="1" pageScale="1" pageWidth="827" pageHeight="1169" math="0" shadow="0">
      <root>
        <mxCell id="WIyWlLk6GJQsqaUBKTNV-0" />
        <mxCell id="WIyWlLk6GJQsqaUBKTNV-1" parent="WIyWlLk6GJQsqaUBKTNV-0" />
        <mxCell id="WIyWlLk6GJQsqaUBKTNV-2" value="" style="rounded=0;html=1;jettySize=auto;orthogonalLoop=1;fontSize=11;endArrow=block;endFill=0;endSize=8;strokeWidth=1;shadow=0;labelBackgroundColor=none;edgeStyle=orthogonalEdgeStyle;" parent="WIyWlLk6GJQsqaUBKTNV-1" source="WIyWlLk6GJQsqaUBKTNV-3" target="IGHrCSqE1_ESKSLDjnCb-0" edge="1">
          <mxGeometry relative="1" as="geometry">
            <mxPoint x="100" y="230" as="targetPoint" />
          </mxGeometry>
        </mxCell>
        <mxCell id="WIyWlLk6GJQsqaUBKTNV-3" value="Config aanmaken" style="rounded=1;whiteSpace=wrap;html=1;fontSize=12;glass=0;strokeWidth=1;shadow=0;" parent="WIyWlLk6GJQsqaUBKTNV-1" vertex="1">
          <mxGeometry x="40" y="110" width="120" height="40" as="geometry" />
        </mxCell>
        <mxCell id="IGHrCSqE1_ESKSLDjnCb-0" value="Selectie Model" style="rounded=1;whiteSpace=wrap;html=1;fontSize=12;glass=0;strokeWidth=1;shadow=0;" vertex="1" parent="WIyWlLk6GJQsqaUBKTNV-1">
          <mxGeometry x="40" y="190" width="120" height="40" as="geometry" />
        </mxCell>
        <mxCell id="IGHrCSqE1_ESKSLDjnCb-1" value="Selectie Software Versie" style="rounded=1;whiteSpace=wrap;html=1;fontSize=12;glass=0;strokeWidth=1;shadow=0;" vertex="1" parent="WIyWlLk6GJQsqaUBKTNV-1">
          <mxGeometry x="40" y="270" width="120" height="40" as="geometry" />
        </mxCell>
        <mxCell id="IGHrCSqE1_ESKSLDjnCb-2" value="" style="rounded=0;html=1;jettySize=auto;orthogonalLoop=1;fontSize=11;endArrow=block;endFill=0;endSize=8;strokeWidth=1;shadow=0;labelBackgroundColor=none;edgeStyle=orthogonalEdgeStyle;" edge="1" parent="WIyWlLk6GJQsqaUBKTNV-1" source="IGHrCSqE1_ESKSLDjnCb-0" target="IGHrCSqE1_ESKSLDjnCb-1">
          <mxGeometry relative="1" as="geometry">
            <mxPoint x="110" y="160" as="sourcePoint" />
            <mxPoint x="110" y="240" as="targetPoint" />
          </mxGeometry>
        </mxCell>
        <mxCell id="IGHrCSqE1_ESKSLDjnCb-3" value="Selectie plugins" style="rounded=1;whiteSpace=wrap;html=1;fontSize=12;glass=0;strokeWidth=1;shadow=0;" vertex="1" parent="WIyWlLk6GJQsqaUBKTNV-1">
          <mxGeometry x="40" y="350" width="120" height="40" as="geometry" />
        </mxCell>
        <mxCell id="IGHrCSqE1_ESKSLDjnCb-4" value="" style="rounded=0;html=1;jettySize=auto;orthogonalLoop=1;fontSize=11;endArrow=block;endFill=0;endSize=8;strokeWidth=1;shadow=0;labelBackgroundColor=none;edgeStyle=orthogonalEdgeStyle;" edge="1" parent="WIyWlLk6GJQsqaUBKTNV-1" source="IGHrCSqE1_ESKSLDjnCb-1" target="IGHrCSqE1_ESKSLDjnCb-3">
          <mxGeometry relative="1" as="geometry">
            <mxPoint x="110" y="240" as="sourcePoint" />
            <mxPoint x="110" y="280" as="targetPoint" />
          </mxGeometry>
        </mxCell>
        <mxCell id="IGHrCSqE1_ESKSLDjnCb-5" value="Per plugin: informatie invoeren" style="rounded=1;whiteSpace=wrap;html=1;fontSize=12;glass=0;strokeWidth=1;shadow=0;" vertex="1" parent="WIyWlLk6GJQsqaUBKTNV-1">
          <mxGeometry x="40" y="430" width="120" height="40" as="geometry" />
        </mxCell>
        <mxCell id="IGHrCSqE1_ESKSLDjnCb-6" value="" style="rounded=0;html=1;jettySize=auto;orthogonalLoop=1;fontSize=11;endArrow=block;endFill=0;endSize=8;strokeWidth=1;shadow=0;labelBackgroundColor=none;edgeStyle=orthogonalEdgeStyle;" edge="1" parent="WIyWlLk6GJQsqaUBKTNV-1" source="IGHrCSqE1_ESKSLDjnCb-3" target="IGHrCSqE1_ESKSLDjnCb-5">
          <mxGeometry relative="1" as="geometry">
            <mxPoint x="110" y="320" as="sourcePoint" />
            <mxPoint x="110" y="360" as="targetPoint" />
          </mxGeometry>
        </mxCell>
        <mxCell id="IGHrCSqE1_ESKSLDjnCb-7" value="Config Yaml omzetten naar Fortigate" style="rounded=1;whiteSpace=wrap;html=1;fontSize=12;glass=0;strokeWidth=1;shadow=0;" vertex="1" parent="WIyWlLk6GJQsqaUBKTNV-1">
          <mxGeometry x="40" y="510" width="120" height="40" as="geometry" />
        </mxCell>
        <mxCell id="IGHrCSqE1_ESKSLDjnCb-8" value="Software en config uitgeven als ZIP / USB" style="rounded=1;whiteSpace=wrap;html=1;fontSize=12;glass=0;strokeWidth=1;shadow=0;" vertex="1" parent="WIyWlLk6GJQsqaUBKTNV-1">
          <mxGeometry x="40" y="590" width="120" height="54.5" as="geometry" />
        </mxCell>
        <mxCell id="IGHrCSqE1_ESKSLDjnCb-9" value="" style="rounded=0;html=1;jettySize=auto;orthogonalLoop=1;fontSize=11;endArrow=block;endFill=0;endSize=8;strokeWidth=1;shadow=0;labelBackgroundColor=none;edgeStyle=orthogonalEdgeStyle;" edge="1" parent="WIyWlLk6GJQsqaUBKTNV-1" source="IGHrCSqE1_ESKSLDjnCb-5" target="IGHrCSqE1_ESKSLDjnCb-7">
          <mxGeometry relative="1" as="geometry">
            <mxPoint x="110" y="400" as="sourcePoint" />
            <mxPoint x="110" y="440" as="targetPoint" />
          </mxGeometry>
        </mxCell>
        <mxCell id="IGHrCSqE1_ESKSLDjnCb-10" value="" style="rounded=0;html=1;jettySize=auto;orthogonalLoop=1;fontSize=11;endArrow=block;endFill=0;endSize=8;strokeWidth=1;shadow=0;labelBackgroundColor=none;edgeStyle=orthogonalEdgeStyle;" edge="1" parent="WIyWlLk6GJQsqaUBKTNV-1" source="IGHrCSqE1_ESKSLDjnCb-7" target="IGHrCSqE1_ESKSLDjnCb-8">
          <mxGeometry relative="1" as="geometry">
            <mxPoint x="110" y="480" as="sourcePoint" />
            <mxPoint x="110" y="520" as="targetPoint" />
          </mxGeometry>
        </mxCell>
        <mxCell id="IGHrCSqE1_ESKSLDjnCb-24" value="Config Uploaden als file" style="rounded=1;whiteSpace=wrap;html=1;fontSize=12;glass=0;strokeWidth=1;shadow=0;" vertex="1" parent="WIyWlLk6GJQsqaUBKTNV-1">
          <mxGeometry x="190" y="30" width="120" height="40" as="geometry" />
        </mxCell>
        <mxCell id="IGHrCSqE1_ESKSLDjnCb-25" value="" style="rounded=0;html=1;jettySize=auto;orthogonalLoop=1;fontSize=11;endArrow=block;endFill=0;endSize=8;strokeWidth=1;shadow=0;labelBackgroundColor=none;edgeStyle=orthogonalEdgeStyle;" edge="1" parent="WIyWlLk6GJQsqaUBKTNV-1">
          <mxGeometry relative="1" as="geometry">
            <mxPoint x="249.5" y="70" as="sourcePoint" />
            <mxPoint x="249.5" y="110" as="targetPoint" />
          </mxGeometry>
        </mxCell>
        <mxCell id="IGHrCSqE1_ESKSLDjnCb-26" value="Website waardes vullen met config waardes" style="rounded=1;whiteSpace=wrap;html=1;fontSize=12;glass=0;strokeWidth=1;shadow=0;" vertex="1" parent="WIyWlLk6GJQsqaUBKTNV-1">
          <mxGeometry x="190" y="110" width="120" height="60" as="geometry" />
        </mxCell>
        <mxCell id="IGHrCSqE1_ESKSLDjnCb-27" value="" style="rounded=0;html=1;jettySize=auto;orthogonalLoop=1;fontSize=11;endArrow=block;endFill=0;endSize=8;strokeWidth=1;shadow=0;labelBackgroundColor=none;edgeStyle=orthogonalEdgeStyle;" edge="1" parent="WIyWlLk6GJQsqaUBKTNV-1" source="IGHrCSqE1_ESKSLDjnCb-26" target="IGHrCSqE1_ESKSLDjnCb-0">
          <mxGeometry relative="1" as="geometry">
            <mxPoint x="259.5" y="80" as="sourcePoint" />
            <mxPoint x="259.5" y="120" as="targetPoint" />
            <Array as="points">
              <mxPoint x="250" y="210" />
            </Array>
          </mxGeometry>
        </mxCell>
        <mxCell id="IGHrCSqE1_ESKSLDjnCb-29" value="Gebruiker kan optioneel de yaml downloaden" style="rounded=1;whiteSpace=wrap;html=1;fontSize=12;glass=0;strokeWidth=1;shadow=0;" vertex="1" parent="WIyWlLk6GJQsqaUBKTNV-1">
          <mxGeometry x="40" y="680" width="120" height="54.5" as="geometry" />
        </mxCell>
        <mxCell id="IGHrCSqE1_ESKSLDjnCb-30" value="" style="rounded=0;html=1;jettySize=auto;orthogonalLoop=1;fontSize=11;endArrow=block;endFill=0;endSize=8;strokeWidth=1;shadow=0;labelBackgroundColor=none;edgeStyle=orthogonalEdgeStyle;" edge="1" parent="WIyWlLk6GJQsqaUBKTNV-1" source="IGHrCSqE1_ESKSLDjnCb-8" target="IGHrCSqE1_ESKSLDjnCb-29">
          <mxGeometry relative="1" as="geometry">
            <mxPoint x="110" y="560" as="sourcePoint" />
            <mxPoint x="110" y="600" as="targetPoint" />
          </mxGeometry>
        </mxCell>
        <mxCell id="IGHrCSqE1_ESKSLDjnCb-31" value="Config file selecteren uit website storage" style="rounded=1;whiteSpace=wrap;html=1;fontSize=12;glass=0;strokeWidth=1;shadow=0;" vertex="1" parent="WIyWlLk6GJQsqaUBKTNV-1">
          <mxGeometry x="340" y="30" width="120" height="40" as="geometry" />
        </mxCell>
        <mxCell id="IGHrCSqE1_ESKSLDjnCb-33" value="" style="rounded=0;html=1;jettySize=auto;orthogonalLoop=1;fontSize=11;endArrow=block;endFill=0;endSize=8;strokeWidth=1;shadow=0;labelBackgroundColor=none;edgeStyle=orthogonalEdgeStyle;" edge="1" parent="WIyWlLk6GJQsqaUBKTNV-1" source="IGHrCSqE1_ESKSLDjnCb-31" target="IGHrCSqE1_ESKSLDjnCb-26">
          <mxGeometry relative="1" as="geometry">
            <mxPoint x="259.5" y="80" as="sourcePoint" />
            <mxPoint x="259.5" y="120" as="targetPoint" />
            <Array as="points">
              <mxPoint x="400" y="140" />
            </Array>
          </mxGeometry>
        </mxCell>
      </root>
    </mxGraphModel>
  </diagram>
  <diagram id="K5lOBYWXEmyekELwvoZV" name="Core Class diagram">
    <mxGraphModel dx="1261" dy="2416" grid="1" gridSize="10" guides="1" tooltips="1" connect="1" arrows="1" fold="1" page="1" pageScale="1" pageWidth="1100" pageHeight="850" math="0" shadow="0">
      <root>
        <mxCell id="0" />
        <mxCell id="1" parent="0" />
        <mxCell id="CHuaGyPKiqh6tsRLRAJX-1" value="" style="rounded=0;whiteSpace=wrap;html=1;fillColor=#d5e8d4;strokeColor=#82b366;" vertex="1" parent="1">
          <mxGeometry x="870" y="-1080" width="690" height="200" as="geometry" />
        </mxCell>
        <mxCell id="CHuaGyPKiqh6tsRLRAJX-2" value="yapsy" style="text;html=1;strokeColor=none;fillColor=none;align=center;verticalAlign=middle;whiteSpace=wrap;rounded=0;fillStyle=auto;fontStyle=1" vertex="1" parent="1">
          <mxGeometry x="870" y="-1080" width="60" height="30" as="geometry" />
        </mxCell>
        <mxCell id="CHuaGyPKiqh6tsRLRAJX-3" value="Plugin" style="swimlane;fontStyle=1;align=center;verticalAlign=top;childLayout=stackLayout;horizontal=1;startSize=26;horizontalStack=0;resizeParent=1;resizeParentMax=0;resizeLast=0;collapsible=1;marginBottom=0;swimlaneFillColor=default;" vertex="1" parent="1">
          <mxGeometry x="1181" y="-802" width="350" height="112" as="geometry" />
        </mxCell>
        <mxCell id="CHuaGyPKiqh6tsRLRAJX-4" value="+ field: type" style="text;strokeColor=none;fillColor=none;align=left;verticalAlign=top;spacingLeft=4;spacingRight=4;overflow=hidden;rotatable=0;points=[[0,0.5],[1,0.5]];portConstraint=eastwest;" vertex="1" parent="CHuaGyPKiqh6tsRLRAJX-3">
          <mxGeometry y="26" width="350" height="26" as="geometry" />
        </mxCell>
        <mxCell id="CHuaGyPKiqh6tsRLRAJX-5" value="" style="line;strokeWidth=1;fillColor=none;align=left;verticalAlign=middle;spacingTop=-1;spacingLeft=3;spacingRight=3;rotatable=0;labelPosition=right;points=[];portConstraint=eastwest;strokeColor=inherit;" vertex="1" parent="CHuaGyPKiqh6tsRLRAJX-3">
          <mxGeometry y="52" width="350" height="8" as="geometry" />
        </mxCell>
        <mxCell id="CHuaGyPKiqh6tsRLRAJX-6" value="+ get(request: HttpRequest, configId: int, config: dict)" style="text;strokeColor=none;fillColor=none;align=left;verticalAlign=top;spacingLeft=4;spacingRight=4;overflow=hidden;rotatable=0;points=[[0,0.5],[1,0.5]];portConstraint=eastwest;" vertex="1" parent="CHuaGyPKiqh6tsRLRAJX-3">
          <mxGeometry y="60" width="350" height="26" as="geometry" />
        </mxCell>
        <mxCell id="CHuaGyPKiqh6tsRLRAJX-7" value="+ post(request: HttpRequest, configId: int, config: dict)" style="text;strokeColor=none;fillColor=none;align=left;verticalAlign=top;spacingLeft=4;spacingRight=4;overflow=hidden;rotatable=0;points=[[0,0.5],[1,0.5]];portConstraint=eastwest;" vertex="1" parent="CHuaGyPKiqh6tsRLRAJX-3">
          <mxGeometry y="86" width="350" height="26" as="geometry" />
        </mxCell>
        <mxCell id="CHuaGyPKiqh6tsRLRAJX-8" value="Config" style="swimlane;fontStyle=1;align=center;verticalAlign=top;childLayout=stackLayout;horizontal=1;startSize=26;horizontalStack=0;resizeParent=1;resizeParentMax=0;resizeLast=0;collapsible=1;marginBottom=0;swimlaneFillColor=default;" vertex="1" parent="1">
          <mxGeometry x="940" y="-840" width="160" height="190" as="geometry" />
        </mxCell>
        <mxCell id="CHuaGyPKiqh6tsRLRAJX-9" value="+ filePath: string" style="text;strokeColor=none;fillColor=none;align=left;verticalAlign=top;spacingLeft=4;spacingRight=4;overflow=hidden;rotatable=0;points=[[0,0.5],[1,0.5]];portConstraint=eastwest;" vertex="1" parent="CHuaGyPKiqh6tsRLRAJX-8">
          <mxGeometry y="26" width="160" height="26" as="geometry" />
        </mxCell>
        <mxCell id="CHuaGyPKiqh6tsRLRAJX-10" value="+ configCache: dict" style="text;strokeColor=none;fillColor=none;align=left;verticalAlign=top;spacingLeft=4;spacingRight=4;overflow=hidden;rotatable=0;points=[[0,0.5],[1,0.5]];portConstraint=eastwest;" vertex="1" parent="CHuaGyPKiqh6tsRLRAJX-8">
          <mxGeometry y="52" width="160" height="26" as="geometry" />
        </mxCell>
        <mxCell id="CHuaGyPKiqh6tsRLRAJX-11" value="" style="line;strokeWidth=1;fillColor=none;align=left;verticalAlign=middle;spacingTop=-1;spacingLeft=3;spacingRight=3;rotatable=0;labelPosition=right;points=[];portConstraint=eastwest;strokeColor=inherit;" vertex="1" parent="CHuaGyPKiqh6tsRLRAJX-8">
          <mxGeometry y="78" width="160" height="8" as="geometry" />
        </mxCell>
        <mxCell id="CHuaGyPKiqh6tsRLRAJX-12" value="+ execute(): string" style="text;strokeColor=none;fillColor=none;align=left;verticalAlign=top;spacingLeft=4;spacingRight=4;overflow=hidden;rotatable=0;points=[[0,0.5],[1,0.5]];portConstraint=eastwest;" vertex="1" parent="CHuaGyPKiqh6tsRLRAJX-8">
          <mxGeometry y="86" width="160" height="26" as="geometry" />
        </mxCell>
        <mxCell id="CHuaGyPKiqh6tsRLRAJX-13" value="+ activePlugins(): Plugin[]" style="text;strokeColor=none;fillColor=none;align=left;verticalAlign=top;spacingLeft=4;spacingRight=4;overflow=hidden;rotatable=0;points=[[0,0.5],[1,0.5]];portConstraint=eastwest;" vertex="1" parent="CHuaGyPKiqh6tsRLRAJX-8">
          <mxGeometry y="112" width="160" height="26" as="geometry" />
        </mxCell>
        <mxCell id="CHuaGyPKiqh6tsRLRAJX-14" value="+ loadFromYaml(): void" style="text;strokeColor=none;fillColor=none;align=left;verticalAlign=top;spacingLeft=4;spacingRight=4;overflow=hidden;rotatable=0;points=[[0,0.5],[1,0.5]];portConstraint=eastwest;" vertex="1" parent="CHuaGyPKiqh6tsRLRAJX-8">
          <mxGeometry y="138" width="160" height="26" as="geometry" />
        </mxCell>
        <mxCell id="CHuaGyPKiqh6tsRLRAJX-15" value="+ saveAsYaml(): void" style="text;strokeColor=none;fillColor=none;align=left;verticalAlign=top;spacingLeft=4;spacingRight=4;overflow=hidden;rotatable=0;points=[[0,0.5],[1,0.5]];portConstraint=eastwest;" vertex="1" parent="CHuaGyPKiqh6tsRLRAJX-8">
          <mxGeometry y="164" width="160" height="26" as="geometry" />
        </mxCell>
        <mxCell id="CHuaGyPKiqh6tsRLRAJX-16" value="PluginManager" style="swimlane;fontStyle=1;align=center;verticalAlign=top;childLayout=stackLayout;horizontal=1;startSize=26;horizontalStack=0;resizeParent=1;resizeParentMax=0;resizeLast=0;collapsible=1;marginBottom=0;fillColor=default;fillStyle=auto;gradientColor=none;swimlaneFillColor=default;" vertex="1" parent="1">
          <mxGeometry x="940" y="-1020" width="160" height="86" as="geometry" />
        </mxCell>
        <mxCell id="CHuaGyPKiqh6tsRLRAJX-17" value="" style="line;strokeWidth=1;fillColor=none;align=left;verticalAlign=middle;spacingTop=-1;spacingLeft=3;spacingRight=3;rotatable=0;labelPosition=right;points=[];portConstraint=eastwest;strokeColor=inherit;" vertex="1" parent="CHuaGyPKiqh6tsRLRAJX-16">
          <mxGeometry y="26" width="160" height="8" as="geometry" />
        </mxCell>
        <mxCell id="CHuaGyPKiqh6tsRLRAJX-18" value="+ collectPlugins(): void" style="text;align=left;verticalAlign=top;spacingLeft=4;spacingRight=4;overflow=hidden;rotatable=0;points=[[0,0.5],[1,0.5]];portConstraint=eastwest;" vertex="1" parent="CHuaGyPKiqh6tsRLRAJX-16">
          <mxGeometry y="34" width="160" height="26" as="geometry" />
        </mxCell>
        <mxCell id="CHuaGyPKiqh6tsRLRAJX-19" value="+ getAllPlugins(): IPlugin[]" style="text;align=left;verticalAlign=top;spacingLeft=4;spacingRight=4;overflow=hidden;rotatable=0;points=[[0,0.5],[1,0.5]];portConstraint=eastwest;" vertex="1" parent="CHuaGyPKiqh6tsRLRAJX-16">
          <mxGeometry y="60" width="160" height="26" as="geometry" />
        </mxCell>
        <mxCell id="CHuaGyPKiqh6tsRLRAJX-20" value="" style="endArrow=block;dashed=1;endFill=0;endSize=12;html=1;rounded=0;" edge="1" parent="1" source="CHuaGyPKiqh6tsRLRAJX-3" target="CHuaGyPKiqh6tsRLRAJX-24">
          <mxGeometry width="160" relative="1" as="geometry">
            <mxPoint x="730" y="-670" as="sourcePoint" />
            <mxPoint x="890" y="-670" as="targetPoint" />
          </mxGeometry>
        </mxCell>
        <mxCell id="CHuaGyPKiqh6tsRLRAJX-21" value="pluginManager" style="endArrow=block;endFill=1;html=1;edgeStyle=orthogonalEdgeStyle;align=left;verticalAlign=top;rounded=0;" edge="1" parent="1" source="CHuaGyPKiqh6tsRLRAJX-8" target="CHuaGyPKiqh6tsRLRAJX-16">
          <mxGeometry x="0.0847" relative="1" as="geometry">
            <mxPoint x="770" y="-770" as="sourcePoint" />
            <mxPoint x="930" y="-770" as="targetPoint" />
            <mxPoint as="offset" />
          </mxGeometry>
        </mxCell>
        <mxCell id="CHuaGyPKiqh6tsRLRAJX-23" style="edgeStyle=orthogonalEdgeStyle;rounded=0;orthogonalLoop=1;jettySize=auto;html=1;exitX=1;exitY=0.5;exitDx=0;exitDy=0;strokeColor=default;endArrow=none;endFill=0;" edge="1" parent="1" source="CHuaGyPKiqh6tsRLRAJX-18" target="CHuaGyPKiqh6tsRLRAJX-24">
          <mxGeometry relative="1" as="geometry" />
        </mxCell>
        <mxCell id="CHuaGyPKiqh6tsRLRAJX-45" value="*" style="edgeLabel;align=center;verticalAlign=middle;resizable=0;points=[];labelBackgroundColor=none;fontSize=20;" vertex="1" connectable="0" parent="CHuaGyPKiqh6tsRLRAJX-23">
          <mxGeometry x="0.7235" y="-1" relative="1" as="geometry">
            <mxPoint x="8" y="12" as="offset" />
          </mxGeometry>
        </mxCell>
        <mxCell id="CHuaGyPKiqh6tsRLRAJX-24" value="IPlugin" style="swimlane;fontStyle=1;align=center;verticalAlign=top;childLayout=stackLayout;horizontal=1;startSize=26;horizontalStack=0;resizeParent=1;resizeParentMax=0;resizeLast=0;collapsible=1;marginBottom=0;swimlaneFillColor=default;" vertex="1" parent="1">
          <mxGeometry x="1276" y="-1016" width="160" height="86" as="geometry" />
        </mxCell>
        <mxCell id="CHuaGyPKiqh6tsRLRAJX-25" value="" style="line;strokeWidth=1;fillColor=none;align=left;verticalAlign=middle;spacingTop=-1;spacingLeft=3;spacingRight=3;rotatable=0;labelPosition=right;points=[];portConstraint=eastwest;strokeColor=inherit;" vertex="1" parent="CHuaGyPKiqh6tsRLRAJX-24">
          <mxGeometry y="26" width="160" height="8" as="geometry" />
        </mxCell>
        <mxCell id="CHuaGyPKiqh6tsRLRAJX-26" value="+ activate(): void" style="text;strokeColor=none;fillColor=none;align=left;verticalAlign=top;spacingLeft=4;spacingRight=4;overflow=hidden;rotatable=0;points=[[0,0.5],[1,0.5]];portConstraint=eastwest;" vertex="1" parent="CHuaGyPKiqh6tsRLRAJX-24">
          <mxGeometry y="34" width="160" height="26" as="geometry" />
        </mxCell>
        <mxCell id="CHuaGyPKiqh6tsRLRAJX-27" value="+ deactivate(): void" style="text;strokeColor=none;fillColor=none;align=left;verticalAlign=top;spacingLeft=4;spacingRight=4;overflow=hidden;rotatable=0;points=[[0,0.5],[1,0.5]];portConstraint=eastwest;" vertex="1" parent="CHuaGyPKiqh6tsRLRAJX-24">
          <mxGeometry y="60" width="160" height="26" as="geometry" />
        </mxCell>
        <mxCell id="CHuaGyPKiqh6tsRLRAJX-28" value="" style="rounded=0;whiteSpace=wrap;html=1;fillColor=#ffe6cc;strokeColor=#d79b00;" vertex="1" parent="1">
          <mxGeometry x="1430" y="-610" width="280" height="200" as="geometry" />
        </mxCell>
        <mxCell id="CHuaGyPKiqh6tsRLRAJX-29" value="jinja2" style="text;html=1;strokeColor=none;fillColor=none;align=center;verticalAlign=middle;whiteSpace=wrap;rounded=0;fillStyle=auto;fontStyle=1" vertex="1" parent="1">
          <mxGeometry x="1430" y="-610" width="60" height="30" as="geometry" />
        </mxCell>
        <mxCell id="CHuaGyPKiqh6tsRLRAJX-30" value="Template" style="swimlane;fontStyle=1;align=center;verticalAlign=top;childLayout=stackLayout;horizontal=1;startSize=26;horizontalStack=0;resizeParent=1;resizeParentMax=0;resizeLast=0;collapsible=1;marginBottom=0;swimlaneFillColor=default;" vertex="1" parent="1">
          <mxGeometry x="1480" y="-560" width="160" height="60" as="geometry" />
        </mxCell>
        <mxCell id="CHuaGyPKiqh6tsRLRAJX-31" value="" style="line;strokeWidth=1;fillColor=none;align=left;verticalAlign=middle;spacingTop=-1;spacingLeft=3;spacingRight=3;rotatable=0;labelPosition=right;points=[];portConstraint=eastwest;strokeColor=inherit;" vertex="1" parent="CHuaGyPKiqh6tsRLRAJX-30">
          <mxGeometry y="26" width="160" height="8" as="geometry" />
        </mxCell>
        <mxCell id="CHuaGyPKiqh6tsRLRAJX-32" value="+ render(args: dict): string" style="text;strokeColor=none;fillColor=none;align=left;verticalAlign=top;spacingLeft=4;spacingRight=4;overflow=hidden;rotatable=0;points=[[0,0.5],[1,0.5]];portConstraint=eastwest;" vertex="1" parent="CHuaGyPKiqh6tsRLRAJX-30">
          <mxGeometry y="34" width="160" height="26" as="geometry" />
        </mxCell>
        <mxCell id="CHuaGyPKiqh6tsRLRAJX-33" value="" style="rounded=0;whiteSpace=wrap;html=1;fillColor=#dae8fc;strokeColor=#6c8ebf;" vertex="1" parent="1">
          <mxGeometry x="900" y="-610" width="460" height="200" as="geometry" />
        </mxCell>
        <mxCell id="CHuaGyPKiqh6tsRLRAJX-34" value="django" style="text;html=1;strokeColor=none;fillColor=none;align=center;verticalAlign=middle;whiteSpace=wrap;rounded=0;fillStyle=auto;fontStyle=1" vertex="1" parent="1">
          <mxGeometry x="900" y="-610" width="60" height="30" as="geometry" />
        </mxCell>
        <mxCell id="CHuaGyPKiqh6tsRLRAJX-35" value="HttpResponse" style="swimlane;fontStyle=1;align=center;verticalAlign=top;childLayout=stackLayout;horizontal=1;startSize=26;horizontalStack=0;resizeParent=1;resizeParentMax=0;resizeLast=0;collapsible=1;marginBottom=0;swimlaneFillColor=default;" vertex="1" parent="1">
          <mxGeometry x="1150" y="-500" width="160" height="34" as="geometry" />
        </mxCell>
        <mxCell id="CHuaGyPKiqh6tsRLRAJX-36" value="" style="line;strokeWidth=1;fillColor=none;align=left;verticalAlign=middle;spacingTop=-1;spacingLeft=3;spacingRight=3;rotatable=0;labelPosition=right;points=[];portConstraint=eastwest;strokeColor=inherit;" vertex="1" parent="CHuaGyPKiqh6tsRLRAJX-35">
          <mxGeometry y="26" width="160" height="8" as="geometry" />
        </mxCell>
        <mxCell id="CHuaGyPKiqh6tsRLRAJX-37" value="Use" style="endArrow=open;endSize=12;dashed=1;html=1;rounded=0;strokeColor=default;exitX=1;exitY=0.5;exitDx=0;exitDy=0;edgeStyle=orthogonalEdgeStyle;" edge="1" parent="1" source="CHuaGyPKiqh6tsRLRAJX-6" target="CHuaGyPKiqh6tsRLRAJX-30">
          <mxGeometry x="-0.0127" y="10" width="160" relative="1" as="geometry">
            <mxPoint x="1530" y="-730" as="sourcePoint" />
            <mxPoint x="1690" y="-730" as="targetPoint" />
            <mxPoint as="offset" />
          </mxGeometry>
        </mxCell>
        <mxCell id="CHuaGyPKiqh6tsRLRAJX-38" value="HttpRequest" style="swimlane;fontStyle=1;align=center;verticalAlign=top;childLayout=stackLayout;horizontal=1;startSize=26;horizontalStack=0;resizeParent=1;resizeParentMax=0;resizeLast=0;collapsible=1;marginBottom=0;swimlaneFillColor=default;" vertex="1" parent="1">
          <mxGeometry x="1150" y="-554.5" width="160" height="34" as="geometry" />
        </mxCell>
        <mxCell id="CHuaGyPKiqh6tsRLRAJX-39" value="" style="line;strokeWidth=1;fillColor=none;align=left;verticalAlign=middle;spacingTop=-1;spacingLeft=3;spacingRight=3;rotatable=0;labelPosition=right;points=[];portConstraint=eastwest;strokeColor=inherit;" vertex="1" parent="CHuaGyPKiqh6tsRLRAJX-38">
          <mxGeometry y="26" width="160" height="8" as="geometry" />
        </mxCell>
        <mxCell id="CHuaGyPKiqh6tsRLRAJX-40" value="Use" style="endArrow=open;endSize=12;dashed=1;html=1;rounded=0;strokeColor=default;edgeStyle=orthogonalEdgeStyle;" edge="1" parent="1" source="CHuaGyPKiqh6tsRLRAJX-3" target="CHuaGyPKiqh6tsRLRAJX-38">
          <mxGeometry x="-0.0127" y="10" width="160" relative="1" as="geometry">
            <mxPoint x="1450" y="-719" as="sourcePoint" />
            <mxPoint x="1540" y="-550" as="targetPoint" />
            <mxPoint as="offset" />
            <Array as="points">
              <mxPoint x="1380" y="-538" />
            </Array>
          </mxGeometry>
        </mxCell>
        <mxCell id="CHuaGyPKiqh6tsRLRAJX-41" value="Model" style="swimlane;fontStyle=1;align=center;verticalAlign=top;childLayout=stackLayout;horizontal=1;startSize=26;horizontalStack=0;resizeParent=1;resizeParentMax=0;resizeLast=0;collapsible=1;marginBottom=0;swimlaneFillColor=default;" vertex="1" parent="1">
          <mxGeometry x="940" y="-554.5" width="160" height="34" as="geometry" />
        </mxCell>
        <mxCell id="CHuaGyPKiqh6tsRLRAJX-42" value="" style="line;strokeWidth=1;fillColor=none;align=left;verticalAlign=middle;spacingTop=-1;spacingLeft=3;spacingRight=3;rotatable=0;labelPosition=right;points=[];portConstraint=eastwest;strokeColor=inherit;" vertex="1" parent="CHuaGyPKiqh6tsRLRAJX-41">
          <mxGeometry y="26" width="160" height="8" as="geometry" />
        </mxCell>
        <mxCell id="CHuaGyPKiqh6tsRLRAJX-43" value="" style="endArrow=block;dashed=1;endFill=0;endSize=12;html=1;rounded=0;" edge="1" parent="1" source="CHuaGyPKiqh6tsRLRAJX-8" target="CHuaGyPKiqh6tsRLRAJX-41">
          <mxGeometry width="160" relative="1" as="geometry">
            <mxPoint x="1371.431718061674" y="-792" as="sourcePoint" />
            <mxPoint x="1340.4185022026431" y="-919.9999999999998" as="targetPoint" />
          </mxGeometry>
        </mxCell>
        <mxCell id="CHuaGyPKiqh6tsRLRAJX-44" value="Use" style="endArrow=open;endSize=12;dashed=1;html=1;rounded=0;strokeColor=default;edgeStyle=orthogonalEdgeStyle;" edge="1" parent="1" source="CHuaGyPKiqh6tsRLRAJX-3" target="CHuaGyPKiqh6tsRLRAJX-35">
          <mxGeometry x="-0.2058" y="10" width="160" relative="1" as="geometry">
            <mxPoint x="1330.0000000000005" y="-680" as="sourcePoint" />
            <mxPoint x="1240.0000000000005" y="-544.5" as="targetPoint" />
            <mxPoint as="offset" />
            <Array as="points">
              <mxPoint x="1380" y="-483" />
            </Array>
          </mxGeometry>
        </mxCell>
      </root>
    </mxGraphModel>
  </diagram>
</mxfile>
